<svg width="16" height="16" viewBox="0 0 16 16" fill="none" xmlns="http://www.w3.org/2000/svg">
  <path d="M8 0.5C3.86 0.5 0.5 3.86 0.5 8c0 3.31 2.14 6.11 5.1 7.11 0.37 0.07 0.5-0.16 0.5-0.36 0-0.18-0.01-0.77-0.01-1.39-1.86 0.41-2.25-0.9-2.25-0.9-0.34-0.86-0.83-1.08-0.83-1.08-0.68-0.47 0.05-0.46 0.05-0.46 0.75 0.05 1.14 0.78 1.14 0.78 0.67 1.14 1.76 0.81 2.19 0.62 0.07-0.49 0.26-0.81 0.47-1-1.48-0.17-3.03-0.74-3.03-3.3 0-0.73 0.26-1.33 0.69-1.8-0.07-0.17-0.3-0.87 0.07-1.82 0 0 0.57-0.18 1.87 0.69 0.54-0.15 1.11-0.23 1.68-0.23 0.57 0 1.14 0.08 1.68 0.23 1.3-0.87 1.87-0.69 1.87-0.69 0.37 0.95 0.14 1.65 0.07 1.82 0.43 0.47 0.69 1.07 0.69 1.8 0 2.56-1.56 3.13-3.04 3.3 0.27 0.23 0.5 0.69 0.5 1.39 0 1-0.01 1.81-0.01 2.06 0 0.2 0.13 0.44 0.51 0.36 2.96-1 5.1-3.8 5.1-7.11C15.5 3.86 12.14 0.5 8 0.5Z" fill="white"/>
</svg>